# xmcd
#
# Track frame offsets: 
#        150
#        8140
#        16140
#        26672
#        37180
#        38400
#        47577
#        56280
#        65017
#        76085
#        86932
#        98400
#        110747
#        112950
#        124795
#        137985
#        149675
#        161372
#        173000
#        174470
#        176982
#        179697
#        180945
#        186187
#        195717
#        205152
#        214565
#        222047
#        231682
#        237610
#        239050
#        248805
#        258332
#        264907
#        275507
#        279702
#        290377
#        299705
#
# Disc length: 4127 seconds
#
# Revision: 1
# Processed by: cddbd v1.5.2PL0 Copyright (c) Steve Scherf et al.
# Submitted via: ExactAudioCopyFreeDBPlugin 1.0
#
DISCID=3d101d26
DTITLE=Johnny Cash - The Outtakes [CD3]
DYEAR=2007
DGENRE=Country
TTITLE0=I Can't Help It (If I'm Still In Love With You)
TTITLE1=I Can't Help It (If I'm Still In Love With You) (Undubbed Mast
TTITLE1=er)
TTITLE2=Cold, Cold Heart
TTITLE3=Cold, Cold Heart
TTITLE4=Katy Too (False Starts)
TTITLE5=Katy Too
TTITLE6=Katy Too
TTITLE7=Katy Too
TTITLE8=The Ways Of A Woman In Love
TTITLE9=Fools Hall Of Fame
TTITLE10=Fools Hall Of Fame (False Start and Complete Take)
TTITLE11=Thanks A Lot
TTITLE12=Thanks A Lot (False Start)
TTITLE13=Thanks A Lot
TTITLE14=Thanks A Lot
TTITLE15=Thanks A Lot (Undubbed Master)
TTITLE16=Thanks A Lot (Vocal Overdub
TTITLE17=Thanks A Lot (Vocal Overdub)
TTITLE18=Thanks A Lot (Vocal Overdub - Ending Only)
TTITLE19=Thanks A Lot (Vocal Overdub - Ending Only)
TTITLE20=Thanks A Lot (Vocal Overdub - Ending Only)
TTITLE21=Thanks A Lot (Vocal Overdub - Ending Only)
TTITLE22=It's Just About Time (Incomplete Take)
TTITLE23=It's Just About Time
TTITLE24=It's Just About Time
TTITLE25=It's Just About Time
TTITLE26=It's Just About Time (Incomplete Take)
TTITLE27=It's Just About Time
TTITLE28=I Forgot To Remember To Forget (Incomplete Take)
TTITLE29=I Forgot To Remember To Forget (False Start)
TTITLE30=I Forgot To Remember To Forget
TTITLE31=I Forgot To Remember To Forget
TTITLE32=I Just Thought You'd Like To Know (Incomplete Take)
TTITLE33=I Just Thought You'd Like To Know
TTITLE34=I Just Thought You'd Like To Know (Incomplete Take)
TTITLE35=I Just Thought You'd Like To Know
TTITLE36=Down The Street To 301
TTITLE37=Down The Street To 301 (False Start and Complete Take)
EXTD=
EXTT0=
EXTT1=
EXTT2=
EXTT3=
EXTT4=
EXTT5=
EXTT6=
EXTT7=
EXTT8=
EXTT9=
EXTT10=
EXTT11=
EXTT12=
EXTT13=
EXTT14=
EXTT15=
EXTT16=
EXTT17=
EXTT18=
EXTT19=
EXTT20=
EXTT21=
EXTT22=
EXTT23=
EXTT24=
EXTT25=
EXTT26=
EXTT27=
EXTT28=
EXTT29=
EXTT30=
EXTT31=
EXTT32=
EXTT33=
EXTT34=
EXTT35=
EXTT36=
EXTT37=
PLAYORDER=
